<?xml version="1.0" encoding="UTF-8"?>
<svg version="1.1" xmlns="http://www.w3.org/2000/svg" width="1024" height="1024">
<path d="M0 0 C1.3685815 -0.00706146 2.73716263 -0.01419417 4.10574341 -0.02139282 C8.46242808 -0.0409489 12.81905681 -0.04608526 17.17578125 -0.046875 C17.91795773 -0.04716957 18.6601342 -0.04746414 19.42480087 -0.04776764 C41.580539 -0.04918928 63.49793345 0.13121003 85.48828125 3.203125 C86.93472561 3.3984928 88.38117773 3.5938031 89.82763672 3.7890625 C170.18464045 14.8199324 246.89443547 44.0559545 312.48828125 92.203125 C313.18324707 92.71262695 313.87821289 93.22212891 314.59423828 93.74707031 C323.08976788 99.99868264 331.40827933 106.41919275 339.48828125 113.203125 C340.5351171 114.07426579 341.58199391 114.94535738 342.62890625 115.81640625 C354.72512826 125.93954869 366.14084526 136.66893635 377.28930664 147.81884766 C379.17901314 149.70635313 381.07662063 151.58567117 382.97460938 153.46484375 C389.22682172 159.68887599 395.18238819 165.94615114 400.64428711 172.88549805 C402.47007334 175.18024036 404.38444176 177.35238038 406.36328125 179.515625 C463.9043525 243.75279725 499.89558429 327.76361098 523.48828125 461.203125 C523.59430664 462.23131348 523.70033203 463.25950195 523.80957031 464.31884766 C526.74411265 498.03453034 526.16040066 533.65653873 521.48828125 567.203125 C521.38882202 567.91738647 521.28936279 568.63164795 521.18688965 569.36755371 C509.19585806 654.19197252 477.66273232 733.43850641 426.48828125 802.203125 C426.04387695 802.80205566 425.59947266 803.40098633 425.14160156 804.01806641 C416.63442042 815.43181328 407.33601139 826.1717611 397.75927734 836.69677734 C396.32702182 838.2774627 394.90198472 839.86474733 393.48730469 841.46118164 C388.13067883 847.49462612 382.56683302 853.28053465 376.84936523 858.97241211 C375.41988408 860.39649992 373.99587614 861.82590544 372.57226562 863.25585938 C367.37182054 868.44906654 362.08112036 873.43736976 356.48828125 878.203125 C355.29660399 879.24820897 354.10647835 880.29506506 352.91796875 881.34375 C323.50525056 907.13108441 291.13471584 929.46027111 256.69775391 948.01025391 C254.48987942 949.20226217 252.29189673 950.41126105 250.09375 951.62109375 C180.36328068 989.59665739 99.86876926 1007.40214183 20.80078125 1007.453125 C19.84763031 1007.45379974 18.89447937 1007.45447449 17.91244507 1007.45516968 C-68.52395309 1007.35913622 -154.02484374 984.3937394 -289.95117188 898.44775391 C-291.33622794 897.34308936 -292.72817527 896.24707758 -294.12109375 895.15234375 C-311.26199369 881.62447664 -327.0602083 866.73242156 -342.51171875 851.328125 C-343.00662811 850.83589447 -343.50153748 850.34366394 -344.01144409 849.83651733 C-349.73246391 844.13903347 -355.27971514 838.35585371 -360.51171875 832.203125 C-361.46079971 831.11983057 -362.41126755 830.03774925 -363.36328125 828.95703125 C-371.16379301 820.01433647 -378.43582752 810.72699399 -385.51171875 801.203125 C-386.06005371 800.46513672 -386.60838867 799.72714844 -387.17333984 798.96679688 C-436.53452709 732.22409318 -468.00888447 653.92300609 -484.51171875 516.203125 C-484.53508301 515.43484375 -484.55844727 514.6665625 -484.58251953 513.875 C-486.43383536 442.68490558 -471.49602416 369.19725602 -442.51171875 304.203125 C-442.0518457 303.16140137 -441.59197266 302.11967773 -441.11816406 301.04638672 C-427.0827129 269.38822454 -410.13234394 239.06788979 -389.51171875 211.203125 C-389.01720215 210.5313623 -388.52268555 209.85959961 -388.01318359 209.16748047 C-384.55542536 204.47980374 -381.0516129 199.82904264 -377.51171875 195.203125 C-377.0331543 194.57744629 -376.55458984 193.95176758 -376.06152344 193.30712891 C-370.79320419 186.44610374 -365.40427324 179.79189241 -359.546875 173.41796875 C-357.72704706 171.43746503 -355.95605544 169.42686223 -354.19921875 167.390625 C-346.34808889 158.41279541 -338.17900636 149.77579661 -329.76171875 141.328125 C-329.0651416 140.62695557 -328.36856445 139.92578613 -327.65087891 139.20336914 C-323.66132076 135.2256256 -319.56847022 131.42782711 -315.30224609 127.74853516 C-313.06322897 125.81603196 -310.88207659 123.82366229 -308.69921875 121.828125 C-303.44750918 117.10079187 -298.03904468 112.6031779 -292.51171875 108.203125 C-291.87766113 107.69652344 -291.24360352 107.18992187 -290.59033203 106.66796875 C-261.58698065 83.56904169 -230.64139157 64.6885813 -197.51171875 48.203125 C-196.64853027 47.76564941 -195.7853418 47.32817383 -194.89599609 46.87744141 C-171.90460081 35.2307054 -147.19454128 26.48057655 -122.51171875 19.203125 C-121.01705078 18.75743164 -121.01705078 18.75743164 -119.4921875 18.30273438 C-81.0422575 6.97505923 -40.11065583 0.13913934 0 0 Z " fill="#38B0B4" transform="translate(491.51171875,0.796875)"/>
<path d="M0 0 C1.04110428 -0.00570007 2.08220856 -0.01140015 3.15486145 -0.01727295 C5.3524984 -0.02666934 7.55014911 -0.03323544 9.74780273 -0.03710938 C13.02809987 -0.04671704 16.3077426 -0.07775197 19.58789062 -0.109375 C38.21697749 -0.20359156 56.49536262 1.46692539 74.64453125 5.828125 C75.70687988 6.07973389 76.76922852 6.33134277 77.86376953 6.59057617 C97.59602096 11.43914652 116.68229291 18.19678344 134.89453125 27.203125 C135.7035791 27.60144531 136.51262695 27.99976563 137.34619141 28.41015625 C166.4202094 42.86970339 195.34595155 63.80940651 215.89453125 89.203125 C216.87678077 90.37438893 217.85995187 91.54488027 218.84375 92.71484375 C235.35930769 112.50569011 248.5899108 134.57356432 258.89453125 158.203125 C259.425625 159.40710938 259.95671875 160.61109375 260.50390625 161.8515625 C283.33038388 216.09386244 284.44309049 279.99064372 262.91015625 334.72753906 C252.07555063 361.13689027 237.12142341 383.14565909 217.40869141 403.62597656 C216.16706317 404.9192559 214.94069602 406.22717072 213.71875 407.5390625 C209.23835464 412.24011973 204.25269005 416.15633973 199.1262207 420.11791992 C190.4119808 426.20555959 190.4119808 426.20555959 183.89453125 434.203125 C183.23216283 440.6909388 185.24757691 445.53701227 187.76953125 451.453125 C188.17373291 452.41532959 188.57793457 453.37753418 188.99438477 454.36889648 C197.30690099 473.79563163 207.26706554 489.85546149 221.89453125 505.203125 C222.4045166 505.74300049 222.91450195 506.28287598 223.43994141 506.83911133 C227.60066363 511.13946697 231.98457546 514.7300315 236.89453125 518.140625 C237.63727295 518.65713623 238.38001465 519.17364746 239.14526367 519.70581055 C260.70232582 534.44837057 282.91273958 540.19222982 308.61523438 543.55957031 C337.38682833 547.3441583 366.34907194 555.31979676 385.89453125 578.203125 C396.64859477 592.45225916 399.44364242 607.73051285 397.89453125 625.203125 C396.2939206 634.22214695 392.02357744 641.53995714 385.89453125 648.203125 C385.39566406 648.81542969 384.89679687 649.42773438 384.3828125 650.05859375 C378.93098274 656.27944736 369.17496507 661.85989241 360.89453125 663.203125 C359.14566144 663.26937007 357.39450377 663.28865095 355.64453125 663.265625 C354.30648438 663.25208984 354.30648438 663.25208984 352.94140625 663.23828125 C351.92820312 663.22087891 351.92820312 663.22087891 350.89453125 663.203125 C352.65330458 661.42910219 354.43096473 659.70904154 356.26953125 658.015625 C364.10116383 649.6245901 365.29476141 642.33873931 365.1015625 631.1875 C364.63152178 622.1414334 361.31800224 615.61449906 354.89453125 609.203125 C346.07851255 602.44467796 334.81138584 598.08176478 323.6953125 598.0703125 C322.48552734 598.06902344 321.27574219 598.06773437 320.02929688 598.06640625 C318.13727539 598.07220703 318.13727539 598.07220703 316.20703125 598.078125 C314.96501953 598.07425781 313.72300781 598.07039062 312.44335938 598.06640625 C304.92046487 598.06054259 304.92046487 598.06054259 297.43359375 598.6953125 C290.97285392 599.52842561 284.46158961 599.44737867 277.95703125 599.453125 C276.92532303 599.45413712 276.92532303 599.45413712 275.87277222 599.45516968 C239.2561797 599.39822153 205.39974767 585.6378561 178.89453125 560.203125 C178.02441406 559.39617188 177.15429688 558.58921875 176.2578125 557.7578125 C154.94090352 537.38359136 143.0394818 511.37028658 131.94140625 484.5 C131.53583496 483.5248645 131.53583496 483.5248645 131.12207031 482.5300293 C130.46119802 480.92730309 129.81750809 479.3175188 129.17578125 477.70703125 C127.75315305 474.92683407 126.30379672 473.18315352 123.89453125 471.203125 C120.80991154 470.70270354 120.80991154 470.70270354 117.89453125 471.203125 C115.63475189 473.04189895 115.63475189 473.04189895 115.62890625 475.80078125 C115.86582197 528.33684247 123.75712173 591.8331376 161.89453125 631.203125 C162.40757812 631.78964844 162.920625 632.37617187 163.44921875 632.98046875 C172.80077344 643.27686964 186.14876731 650.00465785 198.08203125 656.765625 C207.28584591 661.99433537 215.95086462 667.17512054 223.89453125 674.203125 C224.77625 674.97527344 225.65796875 675.74742187 226.56640625 676.54296875 C238.39443524 687.60038373 248.15948904 703.29748011 249.09765625 719.76953125 C249.29791157 736.84129751 245.31777801 750.30857031 233.30859375 762.98046875 C229.50594448 766.48161347 225.52818015 768.94624882 220.89453125 771.203125 C220.09917969 771.615625 219.30382812 772.028125 218.484375 772.453125 C212.36599875 775.17660624 206.56152622 775.58200707 199.95703125 775.640625 C199.1276001 775.65077637 198.29816895 775.66092773 197.44360352 775.67138672 C193.04734851 775.60758823 190.13117589 775.5279616 186.89453125 772.203125 C188.16296875 771.89181641 188.16296875 771.89181641 189.45703125 771.57421875 C197.91148255 769.27806664 204.38271278 766.69675916 209.23046875 759.11328125 C213.50117213 750.98077163 214.53308227 741.52325038 212.2109375 732.56640625 C211.25970762 730.30476841 210.18899674 728.28640539 208.89453125 726.203125 C208.48203125 725.52894531 208.06953125 724.85476563 207.64453125 724.16015625 C195.61617404 706.49350659 171.9540127 699.71659407 152.6171875 693.4921875 C136.47791929 688.29519574 121.64560507 682.33128126 107.89453125 672.203125 C107.08113281 671.61273437 106.26773437 671.02234375 105.4296875 670.4140625 C88.037768 657.16576077 74.62351479 640.05486276 63.96240234 621.09960938 C63.25509837 619.84347375 62.53935572 618.5920496 61.81494141 617.34570312 C44.31943078 587.17399256 35.73596904 553.1569574 29.12036133 519.23091125 C27.114598 504.10159067 27.114598 504.10159067 18.89453125 492.203125 C16.00591416 490.75881645 14.09805424 490.82623994 10.89453125 491.203125 C4.56838312 496.20519561 2.56186465 502.4399588 1.31640625 510.15234375 C1.04398849 511.72514745 0.77127129 513.2978993 0.49829102 514.87060547 C0.35948517 515.68962341 0.22067932 516.50864136 0.07766724 517.35247803 C-9.93175326 576.00699103 -30.32034834 641.88010341 -81.0703125 678.27246094 C-100.41063328 691.49230188 -121.35807309 698.30420202 -143.84204102 704.00732422 C-161.54835592 708.56137086 -176.83506298 714.48082945 -187.48828125 730.25 C-191.4485572 737.61666715 -191.26183192 746.73743719 -189.5625 754.76953125 C-186.64116574 763.27529455 -180.88210772 767.36123321 -173.10546875 771.203125 C-170.41813233 772.11474555 -167.90516534 772.68466267 -165.10546875 773.203125 C-165.10546875 773.863125 -165.10546875 774.523125 -165.10546875 775.203125 C-177.49054936 779.99734975 -189.94196943 779.47867104 -202.10546875 774.203125 C-215.27107405 767.16279422 -221.52345718 755.94915971 -226.10546875 742.203125 C-227.01318385 730.13489627 -227.61467587 717.23864857 -222.10546875 706.203125 C-221.66976562 705.27886719 -221.2340625 704.35460937 -220.78515625 703.40234375 C-217.37196609 696.65989433 -213.06816094 690.88036655 -208.10546875 685.203125 C-207.58597656 684.59984375 -207.06648437 683.9965625 -206.53125 683.375 C-197.23679667 673.35478331 -184.98822537 666.88961307 -173.08862305 660.53344727 C-166.11369721 656.79741918 -159.49983783 652.88436093 -153.10546875 648.203125 C-152.29851562 647.61789062 -151.4915625 647.03265625 -150.66015625 646.4296875 C-113.58143957 618.17355935 -96.68199522 573.21427723 -90.23046875 528.328125 C-89.79143659 524.95817467 -89.43074237 521.58584857 -89.10546875 518.203125 C-89.00540527 517.16430176 -88.9053418 516.12547852 -88.80224609 515.05517578 C-85.41121173 492.71241568 -85.41121173 492.71241568 -89.10546875 471.203125 C-91.03240749 468.82255219 -91.03240749 468.82255219 -94.48046875 469.078125 C-98.3676659 469.84609725 -98.3676659 469.84609725 -100.03515625 473.375 C-102.60027264 478.93213348 -104.37023816 484.77643347 -106.22320557 490.60009766 C-119.11108486 530.91966442 -139.9335355 564.53282647 -178.38061523 584.57958984 C-195.37357679 593.00493885 -213.21662669 597.85014695 -232.10546875 599.203125 C-233.31807373 599.2959375 -233.31807373 599.2959375 -234.55517578 599.390625 C-247.37812825 600.2261666 -259.71559043 598.35427707 -272.33630371 596.34860229 C-281.25993839 594.9368602 -290.04501256 593.72529656 -299.10546875 593.765625 C-299.89179688 593.76820313 -300.678125 593.77078125 -301.48828125 593.7734375 C-314.6307534 594.11688189 -328.4027682 597.979033 -338.10546875 607.203125 C-345.01985441 614.79286926 -348.893493 622.7128165 -348.484375 633.0859375 C-347.23949949 643.32728449 -343.11230457 652.47591441 -334.88671875 658.94921875 C-334.29890625 659.36300781 -333.71109375 659.77679687 -333.10546875 660.203125 C-344.86768667 661.29728481 -356.30967601 655.62517073 -365.2890625 648.4609375 C-373.81959569 640.68831557 -378.91067628 629.43707754 -379.4765625 617.9453125 C-379.71269145 606.68377776 -379.66358037 597.25593404 -374.10546875 587.203125 C-373.62078125 586.27886719 -373.13609375 585.35460937 -372.63671875 584.40234375 C-362.41482816 566.68941079 -345.37372482 555.91868436 -326.10546875 550.203125 C-309.90195559 545.89033648 -292.6929106 545.63467698 -276.02514648 544.86499023 C-240.82198223 543.15422154 -209.60598403 527.8461164 -185.69970703 502 C-181.32598443 497.07035248 -177.60647616 491.77764149 -174.10546875 486.203125 C-173.68281738 485.5332959 -173.26016602 484.8634668 -172.82470703 484.17333984 C-164.33116426 470.45251414 -152.90456773 448.86708987 -155.10546875 432.203125 C-158.95685706 427.77701401 -163.6043411 424.44346732 -168.29296875 420.953125 C-174.86203695 415.98355467 -181.16325403 410.92025582 -187.10546875 405.203125 C-187.65912109 404.68057129 -188.21277344 404.15801758 -188.78320312 403.61962891 C-207.25507099 386.12435554 -220.26618197 366.09003202 -231.10546875 343.203125 C-231.61722656 342.14480469 -232.12898437 341.08648437 -232.65625 339.99609375 C-239.65779249 324.69083511 -244.50375594 308.04519129 -247.54296875 291.515625 C-247.69459473 290.69320313 -247.8462207 289.87078125 -248.00244141 289.0234375 C-252.47117938 262.34883548 -251.0617703 234.64872673 -246.10546875 208.203125 C-245.96657227 207.40261719 -245.82767578 206.60210937 -245.68457031 205.77734375 C-239.01915748 167.5826626 -220.99683685 130.46251371 -197.10546875 100.203125 C-196.47511719 99.38070312 -195.84476563 98.55828125 -195.1953125 97.7109375 C-153.33945888 43.9085466 -88.07557027 10.1988304 -21.10546875 1.203125 C-14.05933457 0.34645927 -7.0948101 0.03108706 0 0 Z " fill="#7DDBD2" transform="translate(498.10546875,111.796875)"/>
<path d="M0 0 C0.77843262 0.1870752 1.55686523 0.37415039 2.35888672 0.56689453 C6.61236885 1.59097366 10.81001995 2.74206017 15 4 C15.98178223 4.29245605 15.98178223 4.29245605 16.98339844 4.59082031 C41.75127648 12.07985357 66.67998865 23.26060668 88 38 C88.95036133 38.65137939 88.95036133 38.65137939 89.91992188 39.31591797 C98.93591245 45.51078936 107.67262747 51.89444994 116 59 C117.14282634 59.95751224 118.28608076 60.91451371 119.4296875 61.87109375 C129.36129693 70.22523523 138.6728524 79.02025856 147 89 C147.45745605 89.54366211 147.91491211 90.08732422 148.38623047 90.64746094 C164.71056887 110.1089158 178.1430229 131.03184956 189 154 C189.33241699 154.69673828 189.66483398 155.39347656 190.00732422 156.11132812 C201.22786335 179.80927865 208.27014201 205.06804428 212 231 C212.10441406 231.72348633 212.20882812 232.44697266 212.31640625 233.19238281 C216.93439458 266.90662036 213.50388617 300.23734103 205 333 C204.69449219 334.21300781 204.38898437 335.42601562 204.07421875 336.67578125 C195.86212193 366.06029832 180.09162948 395.06973663 160 418 C159.30777344 418.80179688 158.61554687 419.60359375 157.90234375 420.4296875 C153.53768054 425.38845188 148.9682895 430.12891869 144.3125 434.8125 C143.77786133 435.35181152 143.24322266 435.89112305 142.69238281 436.44677734 C139.28065282 439.8447929 135.73999101 442.96651404 132 446 C134.7894412 449.37890802 138.58626005 451.03950761 142.4375 452.9375 C143.14817627 453.29013916 143.85885254 453.64277832 144.59106445 454.00610352 C162.16684363 462.54437639 181.33905181 465.17475221 200.1328125 458.96484375 C221.05268904 451.41718528 235.63466974 436.53997163 249.078125 419.40234375 C262.2116534 402.98543324 279.46194441 388.20137305 301 385 C315.64843229 383.63495611 329.41321573 384.10355401 343 390 C344.07121094 390.44601562 345.14242187 390.89203125 346.24609375 391.3515625 C363.78408009 399.34977792 374.88670299 413.50607506 382 431 C387.11408429 446.00017366 386.39582647 462.70339003 379.5390625 477.05859375 C378.12814013 479.46862105 376.63503397 481.73782971 375 484 C374.401875 484.9075 373.80375 485.815 373.1875 486.75 C366.85442608 493.26401889 358.58156973 498.05495457 349.4375 498.4375 C344.5440067 498.28982256 341.68413391 497.40782387 338 494 C333.2499165 488.50107981 334.89849246 481.06588606 335.20507812 474.28320312 C335.23150391 473.28095703 335.25792969 472.27871094 335.28515625 471.24609375 C335.32519775 470.33529053 335.36523926 469.4244873 335.40649414 468.48608398 C334.86883808 465.1978247 333.54974075 464.06187465 331 462 C327.31951118 460.95231926 323.69562545 461.21882758 320.2109375 462.82421875 C313.57329893 467.81031218 309.38524449 476.08003329 305 483 C290.60096065 505.66764121 275.21759448 526.62881743 252 541 C251.34 541 250.68 541 250 541 C250 541.66 250 542.32 250 543 C251.15757812 543.11730469 252.31515625 543.23460937 253.5078125 543.35546875 C257.80715653 543.89548754 261.76497368 544.96835312 265.875 546.3125 C266.5747998 546.53905273 267.27459961 546.76560547 267.99560547 546.99902344 C270.0006461 547.65579119 272.00058794 548.32633087 274 549 C274.91265625 549.29777344 275.8253125 549.59554687 276.765625 549.90234375 C296.9963693 557.17067407 315.55597906 574.07506712 324.8125 593.25 C333.50792006 612.55836756 334.8512183 632.96073793 327.93359375 653.10546875 C321.6040034 669.58747135 309.85719408 682.88062661 293.9140625 690.46875 C280.15187294 696.43120996 263.15586527 699.33278025 248.5625 694.3125 C246.12109375 693.19140625 246.12109375 693.19140625 244 692 C243.33097656 691.63777344 242.66195312 691.27554688 241.97265625 690.90234375 C237.31324792 687.99637027 233.96284161 684.15028793 232 679 C231.16107001 673.75300804 231.07239086 669.56733959 233.8125 664.9375 C237.54265407 661.63364925 240.00878733 660.71962449 244.875 660.125 C249.62845458 659.40077355 252.65892307 658.68670558 256 655 C257.85748505 651.2850299 257.43559338 647.05486192 257 643 C254.3368913 637.67378259 249.36563078 635.92709275 244 634 C240.85480054 633.05919725 238.02476007 632.87123131 234.74609375 632.8671875 C233.72580078 632.86589844 232.70550781 632.86460937 231.65429688 632.86328125 C230.59275391 632.86714844 229.53121094 632.87101563 228.4375 632.875 C227.40302734 632.87113281 226.36855469 632.86726562 225.30273438 632.86328125 C220.40834175 632.86941073 215.5924827 632.98926062 210.72265625 633.4921875 C203.4949448 634.21632371 196.25699418 634.24392927 189 634.25 C188.27078339 634.25067474 187.54156677 634.25134949 186.79025269 634.25204468 C175.29412393 634.2351958 164.2187741 633.66001468 153 631 C152.25830566 630.82839355 151.51661133 630.65678711 150.75244141 630.47998047 C122.70844269 623.80454236 98.62951711 610.00091686 78 590 C77.08992187 589.11828125 76.17984375 588.2365625 75.2421875 587.328125 C70.57955047 582.73507957 66.21598959 578.00190017 62 573 C66.86938273 592.53691362 73.47469194 611.67287755 87 627 C87.74507812 627.85464844 88.49015625 628.70929687 89.2578125 629.58984375 C99.80341257 640.88372898 113.4399377 647.87697831 126.78076172 655.31469727 C137.66339203 661.42066966 146.8938348 668.44239897 156 677 C156.61488281 677.53882813 157.22976563 678.07765625 157.86328125 678.6328125 C170.11823633 689.84539209 177.73890704 707.04645171 181 723 C181.18433594 723.76699219 181.36867188 724.53398438 181.55859375 725.32421875 C185.08909866 746.72595203 179.17523274 766.38766813 167.125 783.9375 C156.7394566 797.41446002 141.9121446 807.17316609 125 810 C109.07735564 811.61264076 94.86412757 810.21718774 82 800 C79.1875 797.4375 79.1875 797.4375 77 795 C75.948125 793.8553125 75.948125 793.8553125 74.875 792.6875 C70.63575847 786.6112538 69.6609779 780.94732192 69.40625 773.61328125 C70.31536697 769.61197039 71.60568161 768.31979797 75 766 C78.83385863 765.46686706 82.5810023 765.66706345 86.4375 765.875 C95.66322042 766.52288841 95.66322042 766.52288841 104 763 C105.84482443 760.65204164 106.04649711 758.76286476 106.625 755.8125 C105.63772547 749.79012537 102.5838444 746.85639446 98 743 C95.66159366 741.60676208 93.3937643 740.34899465 90.9609375 739.15234375 C90.26954681 738.81013794 89.57815613 738.46793213 88.86581421 738.11535645 C80.08869961 733.9110036 70.86773365 730.9920059 61.625 728 C51.33085923 724.65402185 41.14428098 721.25750089 31.23828125 716.87109375 C30.53003204 716.55805298 29.82178284 716.24501221 29.09207153 715.92248535 C16.92701734 710.38111092 5.998858 702.83379932 -4 694 C-4.48952148 693.57605957 -4.97904297 693.15211914 -5.48339844 692.71533203 C-12.76945908 686.39258378 -19.1447726 679.69255737 -25 672 C-25.41572266 671.46987305 -25.83144531 670.93974609 -26.25976562 670.39355469 C-47.2754006 643.57137761 -59.62605001 612.14410052 -70 580 C-70.99506957 576.99834888 -71.99658519 573.9988707 -73 571 C-73.17015625 571.64211426 -73.3403125 572.28422852 -73.515625 572.94580078 C-85.32556688 617.16241164 -102.93547893 657.6610544 -135 691 C-135.61488281 691.67804687 -136.22976563 692.35609375 -136.86328125 693.0546875 C-162.09233348 720.01788744 -198.7292021 731.95712428 -233.5 740.6875 C-241.30605627 742.66579755 -248.53235841 744.78608828 -254.5625 750.375 C-256.39090597 753.71382828 -256.9320137 756.19276748 -257 760 C-255.64838248 763.71694817 -254.34825515 764.79388981 -250.9375 766.8125 C-246.38736133 768.49952175 -241.78284891 768.6207358 -237 768 C-234.98413316 767.03238392 -232.98246398 766.03432904 -231 765 C-228.02908352 764.44295316 -226.09626557 764.60048186 -223 765 C-220.33187754 767.59256501 -219.13182315 769.30633749 -218.43359375 772.98046875 C-218.44581399 783.01328855 -220.75226249 789.76590505 -227.5625 797.1875 C-236.37699506 805.34296739 -246.43896158 809.3154143 -258 812 C-258.80695313 812.19207031 -259.61390625 812.38414062 -260.4453125 812.58203125 C-276.86516396 815.26845955 -292.17855755 811.0247979 -306 802 C-309.57722573 799.21437324 -312.81574531 796.22370564 -316 793 C-316.63550781 792.38640625 -317.27101563 791.7728125 -317.92578125 791.140625 C-330.89016837 777.6875581 -334.51017438 758.29215127 -334.2109375 740.25390625 C-333.30663209 715.65344982 -320.58184457 694.96045915 -303.25 678.3671875 C-293.04923602 669.06453064 -281.03199385 662.46317077 -269.02734375 655.78125 C-241.44011565 640.41725157 -220.65705953 617.96873747 -210 588 C-209.25185639 585.01525636 -208.60088543 582.01760071 -208 579 C-208.3717334 579.40726318 -208.7434668 579.81452637 -209.12646484 580.23413086 C-238.5199444 612.34050629 -274.63357493 631.75224597 -318.60595703 634.14160156 C-337.48290676 634.95095376 -357.1602677 633.21085318 -375.70385742 629.4519043 C-384.86815891 627.64827622 -396.50374025 628.04057798 -405 632 C-408.54510769 634.47813353 -412.03763458 637.07526916 -414 641 C-414.40710593 645.23390162 -414.25575965 647.51588352 -412.25 651.3125 C-409.468752 654.63454622 -407.66675099 655.8333249 -403.34375 656.265625 C-402.4053125 656.26046875 -401.466875 656.2553125 -400.5 656.25 C-399.09234375 656.25773438 -399.09234375 656.25773438 -397.65625 656.265625 C-394.91526109 655.99152611 -393.39850737 655.27789327 -391 654 C-388.22193373 653.43570529 -385.77306287 653.38060686 -383 654 C-379.32983201 657.39490539 -378.71432421 660.55940287 -378.5 665.375 C-378.78317522 672.57155637 -381.60637513 678.20120014 -386.4140625 683.5625 C-397.3629107 693.48657916 -411.2447051 695.82503674 -425.484375 695.3125 C-443.71511279 694.25345299 -458.93735781 684.73135275 -471.25 671.6875 C-484.87671837 655.49706365 -488.63702237 637.51105621 -487.28662109 616.78222656 C-485.30360821 597.53315086 -472.81537582 577.28872258 -458 565 C-438.42981312 549.97096145 -416.73614974 542.62712282 -392.22265625 541.2109375 C-389.96181183 541.13120122 -389.96181183 541.13120122 -388 540 C-388.98226562 539.43345703 -388.98226562 539.43345703 -389.984375 538.85546875 C-397.29477227 534.44651446 -403.46549287 529.29198546 -409.56542969 523.38330078 C-410.91572074 522.08126724 -412.28921075 520.80341583 -413.6640625 519.52734375 C-428.00831003 505.87144247 -436.95311284 487.60601759 -445.4375 469.9375 C-447.46193317 465.78082362 -449.44160662 462.94838309 -453 460 C-453.33 459.67 -453.66 459.34 -454 459 C-457.05215831 458.56663067 -459.95415324 458.50925061 -463 459 C-466.08550557 461.93123029 -467.88920371 464.49572726 -468.203125 468.7578125 C-468.30012876 475.72591614 -467.68806207 480.61585257 -465 487 C-464.58547466 490.52346541 -464.75819761 492.42236096 -466.125 495.6875 C-469.14844739 499.41641844 -472.57577327 500.81269056 -477.296875 501.43359375 C-490.78790413 501.4488551 -499.30719797 497.44514643 -508.94140625 488.12109375 C-519.48089032 476.85317882 -522.53234019 462.47681592 -522.42163086 447.40161133 C-521.8742924 431.45292734 -515.27250506 417.96176145 -505 406 C-504.50242187 405.40703125 -504.00484375 404.8140625 -503.4921875 404.203125 C-490.97899985 390.49521089 -472.67680919 383.77593929 -454.52734375 382.81640625 C-434.98159089 382.44843527 -418.15491923 387.51790603 -403 400 C-401.453125 401.1446875 -401.453125 401.1446875 -399.875 402.3125 C-393.05933197 408.68366794 -387.67209365 416.40916193 -382.125 423.875 C-371.08450957 438.66277823 -360.82938979 451.20785151 -343 458 C-342.22011719 458.3196875 -341.44023437 458.639375 -340.63671875 458.96875 C-324.71714546 464.45300491 -305.60830112 461.94154535 -290.62304688 454.87988281 C-285.65412096 452.41521637 -280.80878897 449.76249579 -276 447 C-282.97850458 440.69032542 -282.97850458 440.69032542 -290.0625 434.5 C-331.14227568 398.5345739 -355.38342307 341.27519486 -359.6875 287.5234375 C-361.95489387 252.52054458 -357.60235452 218.39873216 -347 185 C-346.75056641 184.1946582 -346.50113281 183.38931641 -346.24414062 182.55957031 C-334.90142948 146.32995952 -314.61319403 113.23922258 -289.09375 85.31640625 C-287.29965017 83.33151595 -285.58598419 81.30579989 -283.875 79.25 C-266.04956531 58.87219359 -242.50732059 42.16983034 -219 29 C-218.24299805 28.57364258 -217.48599609 28.14728516 -216.70605469 27.70800781 C-180.90528074 7.74523181 -141.61770689 -3.55704903 -101 -8 C-99.87207031 -8.13277344 -98.74414062 -8.26554687 -97.58203125 -8.40234375 C-65.05653327 -11.60661008 -31.57762999 -7.84676062 0 0 Z M-253.625 81.84375 C-255.76386558 83.7856148 -257.93419385 85.67977596 -260.125 87.5625 C-267.92697117 94.39508798 -274.57242316 101.8691153 -281 110 C-281.7940625 110.98871094 -282.588125 111.97742188 -283.40625 112.99609375 C-301.12069323 135.44746879 -314.89471609 160.8887614 -324 188 C-324.30486328 188.87978516 -324.60972656 189.75957031 -324.92382812 190.66601562 C-330.45809217 206.78354871 -333.56883901 223.15407467 -336 240 C-336.1141626 240.76892578 -336.2283252 241.53785156 -336.34594727 242.33007812 C-337.27736422 249.43760771 -337.19916076 256.59331817 -337.1875 263.75 C-337.18659363 264.77595276 -337.18659363 264.77595276 -337.18566895 265.82263184 C-337.0737848 312.64205177 -323.6271056 358.51434381 -295 396 C-294.35289062 396.87140625 -293.70578125 397.7428125 -293.0390625 398.640625 C-280.69954888 414.54055164 -265.63421577 428.01004342 -249.06445312 439.32128906 C-246.08566108 441.38553969 -244.03234842 442.95147737 -242 446 C-241.43976986 452.02439262 -242.8788747 457.2220627 -244.5625 462.9375 C-244.83352539 463.86264404 -245.10455078 464.78778809 -245.38378906 465.7409668 C-251.16711638 484.89038972 -260.52017155 502.12496637 -274 517 C-274.46212891 517.51127441 -274.92425781 518.02254883 -275.40039062 518.54931641 C-299.51265029 544.86580951 -332.14380862 557.20015001 -367.25463867 558.83288574 C-397.49126407 560.28198472 -426.42412878 562.50052767 -449 585 C-449.71027344 585.68707031 -450.42054688 586.37414062 -451.15234375 587.08203125 C-462.4103698 598.72901021 -466.41263717 612.47693082 -466.36572266 628.24267578 C-466.16483243 639.88877987 -463.28070805 648.84154243 -456 658 C-455.52175781 658.61488281 -455.04351562 659.22976563 -454.55078125 659.86328125 C-447.93086557 667.38363886 -436.80200661 672.45231475 -427 674 C-424.63795767 674.1224091 -422.36783031 674.0986596 -420 674 C-421.051875 673.2575 -421.051875 673.2575 -422.125 672.5 C-430.07743105 665.58484257 -433.77302673 657.40110275 -435.48828125 647.0546875 C-436.14970878 637.3278121 -432.06002751 628.852228 -425.91796875 621.51171875 C-420.67096808 616.49161541 -414.72941098 613.58258206 -408 611 C-406.9275 610.5875 -405.855 610.175 -404.75 609.75 C-389.17601447 605.5025494 -372.6340542 608.00501046 -357 610.5 C-344.24505169 612.51718775 -331.93245641 613.98984717 -319 613 C-317.70425049 612.9071875 -317.70425049 612.9071875 -316.38232422 612.8125 C-284.66137203 610.24130648 -256.00237033 596.76293991 -233 575 C-232.17628906 574.24074219 -231.35257813 573.48148438 -230.50390625 572.69921875 C-210.46238483 553.59567805 -200.38044457 527.78904189 -192.0234375 501.9453125 C-191.71237061 500.98608887 -191.40130371 500.02686523 -191.08081055 499.03857422 C-190.50122152 497.22931871 -189.93419009 495.41597386 -189.38208008 493.59814453 C-187.98143058 489.16591006 -186.88586171 485.8718221 -183 483 C-180.4375 482.5625 -180.4375 482.5625 -178 483 C-175.22699003 484.98072141 -174.60184979 486.72803882 -174 490 C-173.53246533 500.91612846 -174.24837188 511.76094965 -175.25 522.625 C-175.3169104 523.36322998 -175.3838208 524.10145996 -175.45275879 524.86206055 C-179.56790236 569.66818736 -191.50655572 613.62554796 -223 647 C-223.73476563 647.81082031 -224.46953125 648.62164063 -225.2265625 649.45703125 C-235.95788212 660.85232884 -249.43130123 668.43920016 -263.02539062 675.90722656 C-273.08553756 681.47463725 -282.38090701 687.31153997 -291 695 C-291.63164062 695.53753906 -292.26328125 696.07507813 -292.9140625 696.62890625 C-302.67032221 705.5164579 -312.14605545 721.1484185 -313.19287109 734.45092773 C-313.73030999 752.67987787 -312.60517506 765.77936026 -300 780 C-290.15292335 789.54491004 -278.9803592 792.29074967 -265.60546875 792.234375 C-260.76313957 791.91959737 -256.50769086 790.74491259 -252 789 C-252 788.34 -252 787.68 -252 787 C-252.61746094 786.85304688 -253.23492187 786.70609375 -253.87109375 786.5546875 C-262.11290262 784.37192533 -269.22327841 781.22485529 -274 773.875 C-278.05995037 766.85466916 -277.79823672 758.86611915 -277 751 C-273.07388227 738.49727084 -264.26069417 730.9187789 -253 725 C-249.27021769 723.43194734 -245.48013626 722.16039978 -241.625 720.9375 C-240.58279297 720.59734863 -239.54058594 720.25719727 -238.46679688 719.90673828 C-231.86773067 717.79306902 -225.23937211 715.9785126 -218.5 714.375 C-192.89465231 708.24907749 -171.12416713 696.10501089 -152 678 C-150.67355469 676.77023437 -150.67355469 676.77023437 -149.3203125 675.515625 C-111.76530445 639.55643882 -96.65572525 584.71530688 -87.54296875 535.2578125 C-86.55144276 529.89752611 -85.5437242 524.54191174 -84.4609375 519.19921875 C-84.24099121 518.10440186 -84.02104492 517.00958496 -83.79443359 515.8815918 C-82.64136724 511.69915722 -80.90102798 509.19856931 -78 506 C-75.17998673 504.58999336 -73.12992745 504.75451549 -70 505 C-67.09942199 506.03592072 -65.54594829 507.06738175 -63.9765625 509.74829102 C-61.09607301 516.03279896 -59.78194397 522.20948698 -58.625 529 C-50.7274254 572.34418282 -38.11820919 615.89247573 -12 652 C-11.58169922 652.58056152 -11.16339844 653.16112305 -10.73242188 653.75927734 C0.52142944 669.1753355 13.66869861 682.06491972 30 692 C30.5971582 692.36673828 31.19431641 692.73347656 31.80957031 693.11132812 C44.46248975 700.73255414 58.51052004 705.29640992 72.515625 709.77734375 C90.40911115 715.50986256 112.28103748 722.8121298 122.2109375 740.109375 C126.68065971 748.79521815 127.65324948 758.34488526 124.9375 767.875 C122.1143017 774.95938077 117.0074009 780.18801839 110.06640625 783.2578125 C106.75266968 784.44800144 103.44275283 785.26226725 100 786 C103.21661528 789.27763509 106.08662969 789.42602251 110.44775391 789.51904297 C111.26937012 789.51275879 112.09098633 789.50647461 112.9375 789.5 C114.20859619 789.49250732 114.20859619 789.49250732 115.50537109 789.48486328 C129.03751504 789.11303064 140.36314555 783.02560491 149.6875 773.4375 C159.9668747 761.5047993 163.05400276 747.37481601 162.1953125 732.04003906 C160.42506451 713.54979879 148.48781835 697.94105019 135 686 C126.7877847 679.28611368 117.90910773 674.20370494 108.625 669.125 C71.20940411 648.58707631 52.49960278 619.87952249 40.3125 579.5625 C33.16182162 554.73327701 29.63560873 527.81124164 29 502 C28.97953613 501.30551758 28.95907227 500.61103516 28.93798828 499.89550781 C28.69164015 490.85188485 28.69164015 490.85188485 29 487 C31 485 31 485 33.8125 484.5 C37.43236267 485.0678216 38.42236772 486.03299253 40.63696289 488.85058594 C43.34478544 493.12063246 45.14257481 497.83597789 47.04794312 502.5050354 C48.34260228 505.67153203 49.67628833 508.82152437 51.0078125 511.97265625 C51.52118164 513.18840332 52.03455078 514.40415039 52.56347656 515.65673828 C55.40652233 522.27343929 58.56538497 528.67270716 62 535 C62.33 535.61020996 62.66 536.22041992 63 536.84912109 C81.95430811 571.42816898 113.39523422 597.02355775 151.07714844 608.45214844 C163.50560962 611.99321838 175.50179257 613.16977106 188.35375977 613.13037109 C190.42927384 613.1250212 192.50457071 613.13033635 194.58007812 613.13671875 C200.6692857 613.13968669 206.64469441 613.03157604 212.68579102 612.24023438 C218.0208227 611.68641317 223.39145916 611.73062131 228.75 611.6875 C229.9359375 611.65849609 231.121875 611.62949219 232.34375 611.59960938 C245.85345772 611.50374355 260.06280805 615.3313808 270 625 C277.74758517 634.93627798 278.98689639 644.6577032 278 657 C276.23949843 664.43217149 272.68876719 670.62279448 266.1875 674.8125 C265.465625 675.204375 264.74375 675.59625 264 676 C264 676.33 264 676.66 264 677 C275.53676492 677.90091874 285.0157616 674.15442104 294 667 C303.17877764 658.9996911 310.05785409 649.12273967 311.21582031 636.68115234 C311.7433245 626.9147348 311.75765565 617.16466398 308 608 C307.62101563 607.04222656 307.24203125 606.08445312 306.8515625 605.09765625 C298.53325485 586.41752606 281.28719482 574.55172678 262.84179688 567.13183594 C247.45300187 561.26581012 231.5377537 558.49108276 215.25 556.5 C178.80159979 552.01487887 146.7298941 535.38846198 123.50756836 506.62841797 C113.32905805 493.52410105 105.89511136 478.35874088 99.75 463 C99.46213623 462.28924316 99.17427246 461.57848633 98.87768555 460.84619141 C97.2088915 456.42895137 96.50608429 452.70639227 97 448 C100.12098379 441.95096597 106.53482784 437.91474418 111.87866211 433.92480469 C117.9731628 429.35110321 123.49403704 424.25815591 129 419 C129.80308594 418.23816406 130.60617187 417.47632813 131.43359375 416.69140625 C137.11364198 411.16886369 142.13351096 405.24546123 147 399 C147.63010986 398.20843506 147.63010986 398.20843506 148.27294922 397.40087891 C182.44298047 354.26073934 195.77122564 296.28728987 190.3125 242.125 C184.12061848 189.48814359 162.00093406 138.28548356 125.44140625 99.59375 C123.42048422 97.44672243 121.51218419 95.2627663 119.625 93 C110.67951302 82.73712539 99.87702057 74.11562821 89 66 C88.34515625 65.50999512 87.6903125 65.01999023 87.015625 64.51513672 C57.7190482 42.7733308 24.26645546 28.77477724 -11 20 C-12.21558594 19.69320312 -13.43117188 19.38640625 -14.68359375 19.0703125 C-32.8302629 14.84407743 -51.24859726 13.49696113 -69.83398438 13.60888672 C-72.99913585 13.6249956 -76.16301115 13.60890481 -79.328125 13.58984375 C-143.2052596 13.52283058 -206.53319368 38.87247674 -253.625 81.84375 Z " fill="#0B2932" transform="translate(585,98)"/>
<path d="M0 0 C8.70655982 8.17605259 14.10824393 18.21512344 14.69995117 30.13964844 C14.87950261 37.71058815 13.90244708 44.0951389 9.25 50.3125 C8.26 50.8075 8.26 50.8075 7.25 51.3125 C6.95867187 50.2503125 6.66734375 49.188125 6.3671875 48.09375 C2.95967043 36.1398805 -0.25668668 28.76879184 -11.48046875 22.44140625 C-17.81465955 19.29066418 -25.48041769 19.22211436 -32.2890625 20.9609375 C-47.55719675 27.27320502 -55.9049205 41.11850037 -64.125 54.625 C-79.93708426 80.5847927 -98.86390585 102.83915019 -129.03588867 111.6862793 C-133.52675509 112.72244664 -137.90738632 112.80199952 -142.5 112.75 C-143.94451538 112.73646484 -143.94451538 112.73646484 -145.41821289 112.72265625 C-169.37462179 112.14457114 -188.95813515 97.93461505 -205.09765625 81.25 C-213.74986889 71.66757893 -220.99223206 61.29178717 -227.75 50.3125 C-224.1560803 50.3125 -222.51147074 51.31513512 -219.3125 52.9375 C-194.60585728 64.61297954 -167.31769047 68.46528639 -141.25 59.1875 C-119.1747007 50.00767257 -101.19631975 34.54770291 -86.63671875 15.71484375 C-76.34955699 2.61628375 -63.42798835 -10.62912159 -46.20703125 -13.47265625 C-28.74267709 -14.99974604 -13.6731023 -11.29416727 0 0 Z " fill="#7DDBD2" transform="translate(934.75,517.6875)"/>
<path d="M0 0 C10.18401357 6.94364562 17.60255093 15.97991348 24.75 25.875 C40.75412167 47.86667768 59.04947039 65.47988797 87.04296875 70.4609375 C108.54909459 72.86309697 132.86628675 69.90928162 151.7109375 58.58984375 C152.71382812 58.02394531 153.71671875 57.45804688 154.75 56.875 C155.41 57.205 156.07 57.535 156.75 57.875 C150.51459708 69.2771972 144.50240026 80.1965159 135.75 89.875 C134.89115175 90.95462562 134.03622367 92.03739716 133.1875 93.125 C122.88889426 104.74393981 106.17847943 117.58568576 90.27587891 119.11254883 C66.25665023 120.29470809 47.45079949 112.70249474 28.75 97.875 C28.05648437 97.34648438 27.36296875 96.81796875 26.6484375 96.2734375 C15.89904729 87.57970757 8.98381519 75.40734453 2.625 63.375 C-1.26227482 56.0996096 -5.1655045 48.8445755 -9.4296875 41.78125 C-10.34983643 40.25467773 -10.34983643 40.25467773 -11.28857422 38.69726562 C-14.33014213 34.32079997 -17.81528296 30.87871147 -22.375 28.125 C-23.03757813 27.71765625 -23.70015625 27.3103125 -24.3828125 26.890625 C-30.71515826 23.44625283 -38.69568553 23.95858639 -45.4921875 25.7109375 C-54.29951146 29.05010104 -60.69241613 33.98083277 -64.6875 42.625 C-66.75884329 47.78942543 -67.3684652 52.02848017 -67.3125 57.625 C-67.29896484 59.38070312 -67.29896484 59.38070312 -67.28515625 61.171875 C-67.27355469 62.06390625 -67.26195313 62.9559375 -67.25 63.875 C-70.55686529 62.47924517 -72.26575326 60.9502907 -74.375 58.0625 C-75.12136719 57.06283203 -75.12136719 57.06283203 -75.8828125 56.04296875 C-81.04020822 47.86481268 -80.46024621 36.88274914 -78.59765625 27.63671875 C-73.91603404 13.75259452 -65.11816033 3.56460268 -52.125 -3 C-34.71793435 -11.4864379 -16.60057931 -9.6514996 0 0 Z " fill="#7DDBD3" transform="translate(162.25,510.125)"/>
<path d="M0 0 C7.91481904 6.65627891 14.2116962 16.23328017 15.69458008 26.61157227 C15.84670102 29.35796524 15.86824132 32.06259467 15.8125 34.8125 C15.79968994 35.77704102 15.78687988 36.74158203 15.77368164 37.73535156 C15.41098949 50.50814217 11.46265683 60.43145301 2.5859375 69.75 C-3.91804967 75.68971431 -10.61902029 78.69232391 -19.4375 78.5625 C-20.6138501 78.54993164 -20.6138501 78.54993164 -21.81396484 78.53710938 C-31.15374251 78.17707694 -38.15719524 74.51689036 -45.0625 68.3125 C-49.4844875 63.53122602 -52.119204 57.8674828 -54.6875 51.9375 C-55.06390625 51.19113281 -55.4403125 50.44476563 -55.828125 49.67578125 C-58.74581461 40.37896118 -57.9550608 27.13560787 -54.0078125 18.31640625 C-47.74152011 7.02595636 -40.01026518 -1.99356981 -27.375 -5.75 C-17.32706156 -6.91836494 -8.39728981 -6.03466251 0 0 Z " fill="#0B2A33" transform="translate(400.6875,363.0625)"/>
<path d="M0 0 C8.6782401 6.87027342 14.62135943 15.46571244 17 26.375 C18.34886307 41.55482588 16.47550251 55.94524151 7 68.375 C0.87726151 75.106129 -7.06531144 79.62096078 -16.19140625 80.61328125 C-25.64544345 80.90920663 -33.0698995 78.3850364 -40.3125 72.25 C-49.52667405 63.31371374 -53.95538203 53.175497 -54.40258789 40.45483398 C-54.59808309 26.35867318 -50.74500875 14.89450963 -41.0859375 4.26953125 C-29.18016137 -6.85359426 -14.1311713 -7.65438446 0 0 Z " fill="#0B2A33" transform="translate(660,362.625)"/>
<path d="M0 0 C2.60898118 2.14070251 3.76116532 3.70733808 4.37890625 7.05078125 C4.75592453 14.09250984 2.54755548 18.95953664 -1.91796875 24.2890625 C-12.27166769 35.24749076 -26.00855656 41.56689831 -41.15234375 42.23828125 C-57.92120007 42.62800969 -73.18374736 39.60492627 -85.875 27.75 C-90.94612258 22.33291215 -95.14672883 16.24152645 -95.5 8.625 C-95 5 -95 5 -94 2.5 C-91.38524259 0.53893194 -89.13045224 0.4378646 -85.9140625 0.625 C-82.24491878 1.34385265 -80.78696 3.91054486 -78.69921875 6.80078125 C-72.87012946 14.24986557 -63.49250638 19.79186282 -54 21 C-39.75627756 21.88841214 -28.46691758 20.23590642 -17 11 C-14.58265282 8.3866517 -12.82422748 5.73117144 -10.875 2.75 C-7.69594447 -1.91261477 -5.27881387 -1.27419645 0 0 Z " fill="#0A2932" transform="translate(557,440)"/>
<path d="M0 0 C3.27825091 1.27198448 6.41204798 2.69293969 9.5625 4.25 C21.28519347 9.61166494 34.17576801 12.81829952 46.76171875 15.45703125 C49 16 49 16 50 17 C50.24750609 20.46050175 50.38434034 23.92027118 50.5234375 27.38671875 C51.48568701 34.68246301 55.06495092 38.53723358 60.4921875 43.109375 C71.0792978 51.09093479 83.36154354 53.23056143 96.375 53.3125 C97.11169922 53.31805908 97.84839844 53.32361816 98.60742188 53.3293457 C109.03553552 53.19182437 120.06590641 49.72729166 128.5625 43.625 C129.366875 43.08875 130.17125 42.5525 131 42 C131.99 42.33 132.98 42.66 134 43 C127.62836131 48.21315892 121.23744999 52.67972453 113.875 56.375 C112.92753906 56.85646484 112.92753906 56.85646484 111.9609375 57.34765625 C103.22017647 61.592657 94.9685557 63.54753761 85.25 63.4375 C84.28698975 63.42847656 83.32397949 63.41945313 82.33178711 63.41015625 C58.37537821 62.83207114 38.79186485 48.62211505 22.65234375 31.9375 C0 6.84977909 0 6.84977909 0 0 Z " fill="#34ABA6" transform="translate(707,567)"/>
<path d="M0 0 C0.99 0.495 0.99 0.495 2 1 C-4.23540292 12.4021972 -10.24759974 23.3215159 -19 33 C-19.85884825 34.07962562 -20.71377633 35.16239716 -21.5625 36.25 C-31.86110574 47.86893981 -48.57152057 60.71068576 -64.47412109 62.23754883 C-84.08245552 63.20261621 -98.11750225 58.65056254 -115 49 C-115 48.67 -115 48.34 -115 48 C-113.4372038 48.14262412 -111.87477304 48.28925511 -110.3125 48.4375 C-109.44238281 48.51871094 -108.57226562 48.59992187 -107.67578125 48.68359375 C-105 49 -105 49 -102.62670898 49.50048828 C-84.28707972 52.98806905 -67.35927163 48.62032495 -51.765625 38.90625 C-42.21495714 32.32330379 -31.21021665 23.97217482 -25 14 C-25 12.68 -25 11.36 -25 10 C-23.78183594 9.61328125 -22.56367188 9.2265625 -21.30859375 8.828125 C-19.68476347 8.30249208 -18.0610729 7.77642738 -16.4375 7.25 C-15.63763672 6.99734375 -14.83777344 6.7446875 -14.01367188 6.484375 C-10.101834 5.20704018 -6.56786355 3.8629754 -3.03515625 1.734375 C-1.53275391 0.87585938 -1.53275391 0.87585938 0 0 Z " fill="#34AAA5" transform="translate(317,567)"/>
<path d="M0 0 C0.66 0 1.32 0 2 0 C2 12.87 2 25.74 2 39 C1.34 39 0.68 39 0 39 C-0.80598361 32.64808152 -1.15944735 26.46232581 -1.125 20.0625 C-1.12306641 19.18948242 -1.12113281 18.31646484 -1.11914062 17.41699219 C-1.07974115 11.55303679 -0.77576602 5.81824513 0 0 Z " fill="#4FB8BD" transform="translate(8,487)"/>
<path d="M0 0 C5.62303757 4.67466337 10.79741554 9.67765667 15.9375 14.875 C16.71673828 15.65875 17.49597656 16.4425 18.29882812 17.25 C20.20154085 19.16438581 22.10186171 21.08108034 24 23 C23.34 23.66 22.68 24.32 22 25 C14.41 17.41 6.82 9.82 -1 2 C-0.67 1.34 -0.34 0.68 0 0 Z " fill="#14A0A6" transform="translate(854,135)"/>
<path d="M0 0 C0.66 0.33 1.32 0.66 2 1 C-4.93 7.93 -11.86 14.86 -19 22 C-19.66 21.34 -20.32 20.68 -21 20 C-14.52340858 13.42625971 -8.04901517 6.96752243 -1 1 C-0.67 0.67 -0.34 0.34 0 0 Z " fill="#082029" transform="translate(320,159)"/>
<path d="M0 0 C3.5550112 3.5037678 6.96401856 7.11044477 10.3125 10.8125 C14.74181689 15.68120633 19.28427454 20.40588351 24 25 C21 25 21 25 19.31420898 23.6706543 C18.71423096 23.06133057 18.11425293 22.45200684 17.49609375 21.82421875 C16.83802734 21.16099609 16.17996094 20.49777344 15.50195312 19.81445312 C14.82068359 19.11255859 14.13941406 18.41066406 13.4375 17.6875 C12.40979492 16.65206055 12.40979492 16.65206055 11.36132812 15.59570312 C8.62116639 12.81251628 6.17357572 10.26036358 4 7 C3.34 7.66 2.68 8.32 2 9 C1.34 6.03 0.68 3.06 0 0 Z " fill="#3DC2C5" transform="translate(646,669)"/>
<path d="M0 0 C0.33 0.66 0.66 1.32 1 2 C-4.16205691 8.27309565 -9.87372593 13.6749489 -16 19 C-16.66 18.67 -17.32 18.34 -18 18 C-12.06 12.06 -6.12 6.12 0 0 Z " fill="#83E3DC" transform="translate(315,611)"/>
<path d="M0 0 C0.33 0 0.66 0 1 0 C1.22786458 2.05078125 1.45572917 4.1015625 1.68359375 6.15234375 C1.81886614 8.01140229 1.81886614 8.01140229 3 9 C3.07313567 11.53049402 3.09247527 14.03304837 3.0625 16.5625 C3.05798828 17.27341797 3.05347656 17.98433594 3.04882812 18.71679688 C3.03700864 20.47790013 3.01907263 22.23896036 3 24 C2.34 24 1.68 24 1 24 C0.09516363 18.63510405 -0.12303662 13.49682543 -0.0625 8.0625 C-0.05798828 7.28326172 -0.05347656 6.50402344 -0.04882812 5.70117188 C-0.03716908 3.80074732 -0.01923877 1.90036294 0 0 Z " fill="#48B6B9" transform="translate(1013,510)"/>
<path d="M0 0 C5.25174926 4.38442526 10.13222473 9.00842093 14.9375 13.875 C15.62134766 14.56335938 16.30519531 15.25171875 17.00976562 15.9609375 C18.67551464 17.63833511 20.3388622 19.31803791 22 21 C19 21 19 21 17.1328125 19.42578125 C16.47023438 18.72839844 15.80765625 18.03101563 15.125 17.3125 C14.41859375 16.57902344 13.7121875 15.84554687 12.984375 15.08984375 C12.32953125 14.40019531 11.6746875 13.71054687 11 13 C10.13375 12.13375 9.2675 11.2675 8.375 10.375 C7.59125 9.59125 6.8075 8.8075 6 8 C5.45988281 7.48308594 4.91976563 6.96617187 4.36328125 6.43359375 C2.87297287 4.99192014 1.43250019 3.49912811 0 2 C0 1.34 0 0.68 0 0 Z " fill="#0E222A" transform="translate(296,502)"/>
<path d="M0 0 C0.66 0 1.32 0 2 0 C2.66 5.61 3.32 11.22 4 17 C3.01 16.67 2.02 16.34 1 16 C0.63705686 13.8973294 0.28493028 11.79278943 -0.0625 9.6875 C-0.35833984 7.92986328 -0.35833984 7.92986328 -0.66015625 6.13671875 C-1 3 -1 3 0 0 Z " fill="#46B5BA" transform="translate(1008,423)"/>
<path d="M0 0 C4.91935902 4.11619836 9.52647956 8.40410362 14 13 C13.34 13.66 12.68 14.32 12 15 C7.71 10.71 3.42 6.42 -1 2 C-0.67 1.34 -0.34 0.68 0 0 Z " fill="#1FA5AA" transform="translate(149,849)"/>
<path d="M0 0 C0 0.66 0 1.32 0 2 C-5.28 3.32 -10.56 4.64 -16 6 C-16 5.34 -16 4.68 -16 4 C-10.24327539 0.99080304 -6.48697489 -0.14743125 0 0 Z " fill="#45B4B9" transform="translate(651,987)"/>
<path d="M0 0 C0.33 0 0.66 0 1 0 C0.03644647 14.78132118 0.03644647 14.78132118 -1 21 C-3.54612278 17.18081584 -3.3165912 13.41418585 -3 9 C-2.5 6.5 -2.5 6.5 -2 5 C-1.34 5 -0.68 5 0 5 C0 3.35 0 1.7 0 0 Z " fill="#21A6AA" transform="translate(14,434)"/>
<path d="M0 0 C1.41702513 0.14230808 2.8336096 0.28900746 4.25 0.4375 C5.43335938 0.55931641 5.43335938 0.55931641 6.640625 0.68359375 C8.82364639 0.97634993 10.8773182 1.42064419 13 2 C13 2.66 13 3.32 13 4 C13.99 4 14.98 4 16 4 C16 4.66 16 5.32 16 6 C10.72 4.68 5.44 3.36 0 2 C0 1.34 0 0.68 0 0 Z " fill="#45B4B8" transform="translate(370,986)"/>
<path d="M0 0 C-1.65 0.33 -3.3 0.66 -5 1 C-5 1.66 -5 2.32 -5 3 C-0.71 3 3.58 3 8 3 C8 3.33 8 3.66 8 4 C5.41603321 4.08112454 2.83462432 4.14054748 0.25 4.1875 C-0.84441406 4.22520508 -0.84441406 4.22520508 -1.9609375 4.26367188 C-5.34486604 4.30981636 -7.57858557 4.25324128 -10.515625 2.48828125 C-11.00546875 1.99714844 -11.4953125 1.50601563 -12 1 C-3.96428571 -1.27678571 -3.96428571 -1.27678571 0 0 Z " fill="#8AE9E3" transform="translate(697,883)"/>
<path d="M0 0 C0.99 0 1.98 0 3 0 C3 4.29 3 8.58 3 13 C2.01 12.67 1.02 12.34 0 12 C0 8.04 0 4.08 0 0 Z " fill="#13323A" transform="translate(94,561)"/>
<path d="M0 0 C0.66 0 1.32 0 2 0 C2 4.95 2 9.9 2 15 C1.01 15.33 0.02 15.66 -1 16 C-0.67 10.72 -0.34 5.44 0 0 Z " fill="#55BBBF" transform="translate(1014,476)"/>
<path d="M0 0 C0.99 0.33 1.98 0.66 3 1 C4.56519152 4.55725344 4.44010783 9.18075921 4 13 C3.34 14.32 2.68 15.64 2 17 C1.34 11.39 0.68 5.78 0 0 Z " fill="#26A8AD" transform="translate(1009,439)"/>
<path d="M0 0 C0.66 0.33 1.32 0.66 2 1 C-2.24860632 6.2042199 -6.36629298 10.32084439 -12 14 C-12.66 13.67 -13.32 13.34 -14 13 C-9.38 8.71 -4.76 4.42 0 0 Z " fill="#3DC2C4" transform="translate(730,531)"/>
<path d="M0 0 C2.53115191 3.16393989 4.40901101 6.45648516 6.25 10.0625 C6.79140625 11.10535156 7.3328125 12.14820313 7.890625 13.22265625 C9 16 9 16 8 19 C5.70018198 16.15479656 4.20684916 13.4655319 2.875 10.0625 C2.37613281 8.81146484 2.37613281 8.81146484 1.8671875 7.53515625 C1.01164909 5.03405522 0.45596814 2.60087948 0 0 Z " fill="#1AA3A8" transform="translate(59,720)"/>
<path d="M0 0 C2 2 2 2 2 5 C2.66 5 3.32 5 4 5 C6.24828052 9.49656104 6.16682272 13.07872966 6 18 C3.98996365 14.98494548 3.00828459 12.42503788 1.875 9 C1.52179687 7.948125 1.16859375 6.89625 0.8046875 5.8125 C0 3 0 3 0 0 Z " fill="#20A7AC" transform="translate(985,337)"/>
<path d="M0 0 C-2.44563312 2.44563312 -4.75525172 3.34131255 -7.9375 4.6875 C-8.99839844 5.14511719 -10.05929687 5.60273437 -11.15234375 6.07421875 C-14 7 -14 7 -17 6 C-15.73168307 5.18357746 -14.46024069 4.37200895 -13.1875 3.5625 C-12.47980469 3.11003906 -11.77210938 2.65757813 -11.04296875 2.19140625 C-7.28706994 0.00106373 -4.26201889 -0.09471153 0 0 Z " fill="#25A9AC" transform="translate(327,37)"/>
<path d="M0 0 C4.29 0 8.58 0 13 0 C13 0.99 13 1.98 13 3 C8.71 2.67 4.42 2.34 0 2 C0 1.34 0 0.68 0 0 Z " fill="#4BB6BB" transform="translate(477,1)"/>
<path d="M0 0 C0 0.33 0 0.66 0 1 C-7.92 1.495 -7.92 1.495 -16 2 C-16 1.34 -16 0.68 -16 0 C-10.75881575 -1.74706142 -5.31166864 -1.32791716 0 0 Z " fill="#26A6AC" transform="translate(458,5)"/>
<path d="M0 0 C0.99 1.32 1.98 2.64 3 4 C3.99 4 4.98 4 6 4 C6.33 3.34 6.66 2.68 7 2 C6.5206753 6.31392226 5.2542015 8.16569547 2 11 C1.34 7.37 0.68 3.74 0 0 Z " fill="#89E8E2" transform="translate(940,558)"/>
<path d="M0 0 C2.33214424 3.64397537 2.23164058 6.75325612 2 11 C1.67 11.99 1.34 12.98 1 14 C0.34 14 -0.32 14 -1 14 C-1.08333357 9.1666528 -0.95261487 4.76307437 0 0 Z " fill="#27A7AC" transform="translate(1010,564)"/>
<path d="M0 0 C0.33 0.99 0.66 1.98 1 3 C-2.96 2.67 -6.92 2.34 -11 2 C-11 1.34 -11 0.68 -11 0 C-7.18243176 -1.37432457 -3.92744671 -0.67975039 0 0 Z " fill="#4CB7BC" transform="translate(455,1002)"/>
<path d="M0 0 C0.66 0.33 1.32 0.66 2 1 C-1.61251516 5.56048012 -4.98797445 9.01665146 -10 12 C-8.52278578 8.54798361 -6.56205999 6.35038064 -3.875 3.75 C-3.15054688 3.04359375 -2.42609375 2.3371875 -1.6796875 1.609375 C-1.12539062 1.07828125 -0.57109375 0.5471875 0 0 Z " fill="#8BECE5" transform="translate(141,678)"/>
<path d="M0 0 C0.66 0.66 1.32 1.32 2 2 C1.9765625 4.1640625 1.9765625 4.1640625 1.625 6.625 C1.51414062 7.44226563 1.40328125 8.25953125 1.2890625 9.1015625 C1.19367187 9.72804688 1.09828125 10.35453125 1 11 C0.34 11 -0.32 11 -1 11 C-1.33 11.99 -1.66 12.98 -2 14 C-1.85795259 12.41632253 -1.71119847 10.83306682 -1.5625 9.25 C-1.48128906 8.36828125 -1.40007813 7.4865625 -1.31640625 6.578125 C-1.03761535 4.30649548 -0.61209423 2.20148177 0 0 Z " fill="#2FABB0" transform="translate(1007,586)"/>
<path d="M0 0 C0 0.66 0 1.32 0 2 C0.99 2.33 1.98 2.66 3 3 C1.41590006 2.88512252 -0.16728963 2.75765492 -1.75 2.625 C-2.63171875 2.55539062 -3.5134375 2.48578125 -4.421875 2.4140625 C-6.99066382 2.00149945 -8.75841015 1.28839043 -11 0 C-6.94952424 -1.35015859 -4.2079832 -0.62084998 0 0 Z " fill="#27A9AC" transform="translate(617,11)"/>
<path d="M0 0 C0.99 0.33 1.98 0.66 3 1 C3 1.66 3 2.32 3 3 C-3.93 2.505 -3.93 2.505 -11 2 C-6.74100702 -0.12949649 -4.65688422 -0.25401187 0 0 Z " fill="#28A9AE" transform="translate(584,5)"/>
<path d="M0 0 C0.66 0 1.32 0 2 0 C2.66 3.63 3.32 7.26 4 11 C3.34 11 2.68 11 2 11 C2 10.01 2 9.02 2 8 C1.34 8 0.68 8 0 8 C-1.125 2.25 -1.125 2.25 0 0 Z " fill="#57BCC0" transform="translate(1002,393)"/>
<path d="M0 0 C3.63 0 7.26 0 11 0 C11 0.66 11 1.32 11 2 C5.06 2.495 5.06 2.495 -1 3 C-0.67 2.01 -0.34 1.02 0 0 Z " fill="#62C0C3" transform="translate(532,1)"/>
<path d="M0 0 C-4.54428546 3.02952364 -9.539338 5.25108796 -15.0625 4.6875 C-15.701875 4.460625 -16.34125 4.23375 -17 4 C-11.88643979 1.01708988 -5.89517358 -0.36844835 0 0 Z " fill="#06151C" transform="translate(296,706)"/>
<path d="M0 0 C2.56616632 3.84924948 2.55097676 6.4349304 3 11 C1 9.875 1 9.875 -1 8 C-1.31900332 4.87376745 -1.41441874 2.82883747 0 0 Z " fill="#3DC0C3" transform="translate(512,667)"/>
<path d="M0 0 C0.66 0 1.32 0 2 0 C1.44894091 3.9492568 0.61064629 7.34920174 -1 11 C-2.1875 9.4375 -2.1875 9.4375 -3 7 C-1.625 3.25 -1.625 3.25 0 0 Z " fill="#27A8AD" transform="translate(38,334)"/>
<path d="M0 0 C3.59391114 1.33488128 6.75490696 2.96022723 10 5 C8.4375 5.75 8.4375 5.75 6 6 C3.49713591 4.86915563 1.32992278 3.47860484 -1 2 C-0.67 1.34 -0.34 0.68 0 0 Z " fill="#29A9AE" transform="translate(252,932)"/>
<path d="M0 0 C0.66 0 1.32 0 2 0 C2 1.32 2 2.64 2 4 C2.66 4 3.32 4 4 4 C5.125 8.75 5.125 8.75 4 11 C3.34 11 2.68 11 2 11 C1.34 7.37 0.68 3.74 0 0 Z " fill="#4AB8BB" transform="translate(17,602)"/>
<path d="M0 0 C0 3.39593478 -0.52165948 4.06619881 -2.5 6.6875 C-2.9640625 7.31011719 -3.428125 7.93273437 -3.90625 8.57421875 C-4.2671875 9.04472656 -4.628125 9.51523438 -5 10 C-5.66 9.34 -6.32 8.68 -7 8 C-3.375 2.25 -3.375 2.25 0 0 Z " fill="#24A8AB" transform="translate(103,213)"/>
<path d="M0 0 C3.3 0 6.6 0 10 0 C10 0.66 10 1.32 10 2 C6.7 2.33 3.4 2.66 0 3 C0 2.01 0 1.02 0 0 Z " fill="#4FB9BD" transform="translate(576,1001)"/>
<path d="M0 0 C0.33 0.66 0.66 1.32 1 2 C1.66 2 2.32 2 3 2 C2.67 5.3 2.34 8.6 2 12 C1.34 12 0.68 12 0 12 C-0.33 10.68 -0.66 9.36 -1 8 C-0.34 8 0.32 8 1 8 C0.67 5.36 0.34 2.72 0 0 Z " fill="#4DB7BB" transform="translate(1008,576)"/>
<path d="M0 0 C0.66 0 1.32 0 2 0 C3.17571451 3.67410785 3.07366746 7.16929183 3 11 C2.67 10.01 2.34 9.02 2 8 C1.34 8 0.68 8 0 8 C0 5.36 0 2.72 0 0 Z " fill="#4CB7BB" transform="translate(9,461)"/>
<path d="M0 0 C1.45606519 4.52092968 0.27032841 7.51648796 -1 12 C-1.66 11.34 -2.32 10.68 -3 10 C-2.625 6.375 -2.625 6.375 -2 3 C-1.34 3 -0.68 3 0 3 C0 2.01 0 1.02 0 0 Z " fill="#26A8AC" transform="translate(23,387)"/>
<path d="M0 0 C1.21386936 3.64160808 0.6674695 4.33165469 -0.9375 7.6875 C-1.31777344 8.49574219 -1.69804688 9.30398438 -2.08984375 10.13671875 C-2.39019531 10.75160156 -2.69054688 11.36648438 -3 12 C-3.66 11.67 -4.32 11.34 -5 11 C-4.46884894 6.48521602 -2.63379708 3.65333143 0 0 Z " fill="#23A5AA" transform="translate(50,306)"/>
<path d="M0 0 C0 0.66 0 1.32 0 2 C-0.99 2 -1.98 2 -3 2 C-3 2.66 -3 3.32 -3 4 C-7.455 4.495 -7.455 4.495 -12 5 C-12 4.34 -12 3.68 -12 3 C-10.37604003 2.49663233 -8.75079459 1.99741024 -7.125 1.5 C-6.22007812 1.2215625 -5.31515625 0.943125 -4.3828125 0.65625 C-2 0 -2 0 0 0 Z " fill="#51B9BD" transform="translate(385,16)"/>
<path d="M0 0 C3.63 0.33 7.26 0.66 11 1 C11 1.66 11 2.32 11 3 C8.03 3 5.06 3 2 3 C2 2.34 2 1.68 2 1 C1.34 0.67 0.68 0.34 0 0 Z " fill="#53BBC0" transform="translate(538,1004)"/>
<path d="M0 0 C-0.33 0.66 -0.66 1.32 -1 2 C-3.97 2 -6.94 2 -10 2 C-10 1.34 -10 0.68 -10 0 C-6.33694766 -0.74926071 -3.57644848 -1.2380014 0 0 Z " fill="#53BBBF" transform="translate(483,1005)"/>
<path d="M0 0 C0.33 0.99 0.66 1.98 1 3 C-1.31 4.98 -3.62 6.96 -6 9 C-6 6 -6 6 -4.6875 4.39453125 C-4.130625 3.87246094 -3.57375 3.35039063 -3 2.8125 C-2.443125 2.28269531 -1.88625 1.75289062 -1.3125 1.20703125 C-0.6628125 0.60955078 -0.6628125 0.60955078 0 0 Z " fill="#1FA6AA" transform="translate(873,851)"/>
<path d="M0 0 C0 3.58912412 -0.66436554 4.10857029 -3 6.6875 C-3.556875 7.31011719 -4.11375 7.93273437 -4.6875 8.57421875 C-5.120625 9.04472656 -5.55375 9.51523437 -6 10 C-6.33 9.01 -6.66 8.02 -7 7 C-4.69 4.69 -2.38 2.38 0 0 Z " fill="#82E2DB" transform="translate(369,738)"/>
<path d="M0 0 C1 2 1 2 0.5 3.8125 C-1.71174733 7.03796486 -4.75550422 8.88327013 -8 11 C-6.63629701 8.00779732 -5.05091917 5.70973471 -2.875 3.25 C-2.33617187 2.63640625 -1.79734375 2.0228125 -1.2421875 1.390625 C-0.62730469 0.70226562 -0.62730469 0.70226562 0 0 Z " fill="#06161F" transform="translate(733,495)"/>
<path d="M0 0 C2.15377564 2.62198774 3.40072174 4.64404172 4 8 C4.66 8 5.32 8 6 8 C6.33 9.32 6.66 10.64 7 12 C6.01 12.495 6.01 12.495 5 13 C4.15930585 11.39967863 3.32768495 9.79458829 2.5 8.1875 C1.80390625 6.84751953 1.80390625 6.84751953 1.09375 5.48046875 C0 3 0 3 0 0 Z " fill="#1AA2A8" transform="translate(963,284)"/>
<path d="M0 0 C-0.66 0 -1.32 0 -2 0 C-2 0.66 -2 1.32 -2 2 C-4.35438733 3.42944945 -5.48032433 4.08661261 -8.25 3.625 C-8.8275 3.41875 -9.405 3.2125 -10 3 C-6.84439813 -0.15560187 -4.30999015 -1.43666338 0 0 Z " fill="#26A8AD" transform="translate(693,973)"/>
<path d="M0 0 C0.66 0.66 1.32 1.32 2 2 C-1.625 7.875 -1.625 7.875 -5 9 C-3.7508258 5.54074837 -2.32472205 2.85306797 0 0 Z " fill="#29A8AD" transform="translate(938,769)"/>
<path d="M0 0 C0.99 0.33 1.98 0.66 3 1 C2.01 2.485 2.01 2.485 1 4 C0.34 4 -0.32 4 -1 4 C-1.66 5.65 -2.32 7.3 -3 9 C-3.33 8.34 -3.66 7.68 -4 7 C-1.55555556 1.55555556 -1.55555556 1.55555556 0 0 Z " fill="#0A2027" transform="translate(400,581)"/>
<path d="M0 0 C0.99 0.33 1.98 0.66 3 1 C3 3.64 3 6.28 3 9 C2.34 9 1.68 9 1 9 C0.67 6.03 0.34 3.06 0 0 Z " fill="#51B9BD" transform="translate(1012,539)"/>
<path d="M0 0 C0.66 0 1.32 0 2 0 C3.32 3.63 4.64 7.26 6 11 C5.34 11 4.68 11 4 11 C3.34 8.69 2.68 6.38 2 4 C1.34 4 0.68 4 0 4 C0 2.68 0 1.36 0 0 Z " fill="#4EBBBF" transform="translate(978,317)"/>
<path d="M0 0 C0 0.66 0 1.32 0 2 C0.99 2.33 1.98 2.66 3 3 C1.741875 2.87625 0.48375 2.7525 -0.8125 2.625 C-1.87404297 2.52058594 -1.87404297 2.52058594 -2.95703125 2.4140625 C-5 2 -5 2 -8 0 C-5.13822943 -1.43088528 -3.06624227 -0.59991697 0 0 Z " fill="#23A8AD" transform="translate(650,19)"/>
<path d="M0 0 C3.3 0.33 6.6 0.66 10 1 C9.67 1.99 9.34 2.98 9 4 C6.03 3.67 3.06 3.34 0 3 C0 2.01 0 1.02 0 0 Z " fill="#50B8BF" transform="translate(587,6)"/>
<path d="M0 0 C2.97 0.33 5.94 0.66 9 1 C9 1.66 9 2.32 9 3 C6.36 3 3.72 3 1 3 C0.67 2.01 0.34 1.02 0 0 Z " fill="#57BCBE" transform="translate(553,1003)"/>
<path d="M0 0 C4.05606165 0.46800711 7.46588679 0.87953208 11 3 C5.25 4.125 5.25 4.125 3 3 C3 2.34 3 1.68 3 1 C2.01 0.67 1.02 0.34 0 0 Z " fill="#22A7AB" transform="translate(383,989)"/>
<path d="M0 0 C-0.33 0.99 -0.66 1.98 -1 3 C-3.28515625 3.94921875 -3.28515625 3.94921875 -6.0625 4.6875 C-7.44115234 5.06455078 -7.44115234 5.06455078 -8.84765625 5.44921875 C-9.55792969 5.63097656 -10.26820313 5.81273437 -11 6 C-8.05970059 2.8666063 -4.47443154 0 0 0 Z " fill="#1AA2A7" transform="translate(739,951)"/>
<path d="M0 0 C3.7952131 1.49097658 5.61042731 3.75700849 8 7 C5 7 5 7 2.875 5.1875 C1 3 1 3 0 0 Z " fill="#1EA4A9" transform="translate(169,869)"/>
<path d="M0 0 C0.66 0 1.32 0 2 0 C2 0.99 2 1.98 2 3 C2.66 3 3.32 3 4 3 C4 4.98 4 6.96 4 9 C3.34 9 2.68 9 2 9 C1.34 6.03 0.68 3.06 0 0 Z " fill="#5BBFC3" transform="translate(22,624)"/>
<path d="M0 0 C0.66 1.32 1.32 2.64 2 4 C2.66 4 3.32 4 4 4 C4.79953138 7.28696233 5.09658936 8.71023192 4 12 C3.32645501 10.56570999 2.66140299 9.12742943 2 7.6875 C1.62875 6.88699219 1.2575 6.08648437 0.875 5.26171875 C0 3 0 3 0 0 Z " fill="#1CA3A8" transform="translate(970,299)"/>
<path d="M0 0 C-0.6875 2.375 -0.6875 2.375 -2 5 C-4.625 6.3125 -4.625 6.3125 -7 7 C-3.86206897 0 -3.86206897 0 0 0 Z " fill="#41B4B8" transform="translate(143,164)"/>
<path d="M0 0 C0.66 0.33 1.32 0.66 2 1 C0.1875 4 0.1875 4 -2 7 C-2.99 7 -3.98 7 -5 7 C-3.70700306 4.11562221 -2.34058637 2.12780579 0 0 Z " fill="#4AB6BA" transform="translate(180,125)"/>
<path d="M0 0 C-0.33 0.99 -0.66 1.98 -1 3 C-2.84765625 3.73046875 -2.84765625 3.73046875 -5.0625 4.1875 C-5.79597656 4.34605469 -6.52945312 4.50460938 -7.28515625 4.66796875 C-8.13400391 4.83232422 -8.13400391 4.83232422 -9 5 C-9.33 4.34 -9.66 3.68 -10 3 C-8.70990357 2.49596232 -7.41786211 1.99690074 -6.125 1.5 C-5.04605469 1.08234375 -5.04605469 1.08234375 -3.9453125 0.65625 C-2 0 -2 0 0 0 Z " fill="#21A5A9" transform="translate(277,60)"/>
<path d="M0 0 C0.66 0.66 1.32 1.32 2 2 C0.35 3.98 -1.3 5.96 -3 8 C-3.66 7.67 -4.32 7.34 -5 7 C-3.70700306 4.11562221 -2.34058637 2.12780579 0 0 Z " fill="#1FA5AA" transform="translate(888,835)"/>
<path d="M0 0 C0.99 0.33 1.98 0.66 3 1 C0.69 3.31 -1.62 5.62 -4 8 C-4 4.09161134 -2.49432124 2.88405893 0 0 Z " fill="#081B26" transform="translate(272,787)"/>
<path d="M0 0 C0.66 0.33 1.32 0.66 2 1 C1.67 2.32 1.34 3.64 1 5 C0.34 5 -0.32 5 -1 5 C-1.66 6.98 -2.32 8.96 -3 11 C-4 8 -4 8 -3.22265625 5.95703125 C-2.83980469 5.24933594 -2.45695313 4.54164063 -2.0625 3.8125 C-1.68222656 3.09707031 -1.30195312 2.38164063 -0.91015625 1.64453125 C-0.60980469 1.10183594 -0.30945313 0.55914063 0 0 Z " fill="#1CA4A7" transform="translate(970,709)"/>
<path d="M0 0 C0.66 0 1.32 0 2 0 C2 2.64 2 5.28 2 8 C1.01 8 0.02 8 -1 8 C-0.67 5.36 -0.34 2.72 0 0 Z " fill="#5EBFC3" transform="translate(1013,462)"/>
<path d="M0 0 C0.99 0 1.98 0 3 0 C1.73058503 3.91402949 0.48832306 5.79072873 -3 8 C-1.125 2.25 -1.125 2.25 0 0 Z " fill="#21A4AA" transform="translate(116,193)"/>
<path d="M0 0 C3.25543229 0.34879632 4.01873107 1.02133261 6.25 3.5625 C6.8275 4.366875 7.405 5.17125 8 6 C5 6 5 6 3.61328125 4.6875 C2.40885417 3.125 1.20442708 1.5625 0 0 Z " fill="#1DA3A9" transform="translate(870,153)"/>
<path d="M0 0 C3.625 0.375 3.625 0.375 7 1 C7 1.66 7 2.32 7 3 C4.03 2.67 1.06 2.34 -2 2 C-1.34 1.34 -0.68 0.68 0 0 Z " fill="#29AAAF" transform="translate(623,13)"/>
<path d="M0 0 C-0.33 0.66 -0.66 1.32 -1 2 C-3.31 2 -5.62 2 -8 2 C-8 1.34 -8 0.68 -8 0 C-4.94736336 -0.98120464 -3.05263664 -0.98120464 0 0 Z " fill="#5BBEC1" transform="translate(469,1004)"/>
<path d="M0 0 C-1.32 0.33 -2.64 0.66 -4 1 C-4 1.66 -4 2.32 -4 3 C-6.64 2.67 -9.28 2.34 -12 2 C-12 1.67 -12 1.34 -12 1 C-7.93631321 0.22596442 -4.13574827 -0.0984702 0 0 Z " fill="#14A0A5" transform="translate(594,999)"/>
<path d="M0 0 C2.97 0.33 5.94 0.66 9 1 C6 3 6 3 2.8125 2.625 C1.884375 2.41875 0.95625 2.2125 0 2 C0 1.34 0 0.68 0 0 Z " fill="#23A8AC" transform="translate(403,994)"/>
<path d="M0 0 C1.65 0 3.3 0 5 0 C5 0.66 5 1.32 5 2 C2.36 2.66 -0.28 3.32 -3 4 C-3 3.34 -3 2.68 -3 2 C-2.01 2 -1.02 2 0 2 C0 1.34 0 0.68 0 0 Z " fill="#46B4B8" transform="translate(625,992)"/>
<path d="M0 0 C1.46015291 0.28241641 2.91809793 0.57626614 4.375 0.875 C5.18710937 1.03742187 5.99921875 1.19984375 6.8359375 1.3671875 C9 2 9 2 11 4 C4.25 4.125 4.25 4.125 2 3 C2 2.34 2 1.68 2 1 C1.34 0.67 0.68 0.34 0 0 Z " fill="#1AA3A8" transform="translate(351,979)"/>
<path d="M0 0 C1.98 1.65 3.96 3.3 6 5 C5.67 5.66 5.34 6.32 5 7 C4.34 7 3.68 7 3 7 C1.61061923 5.03852126 0.2739589 3.03833424 -1 1 C-0.67 0.67 -0.34 0.34 0 0 Z " fill="#1FA5A9" transform="translate(135,834)"/>
<path d="M0 0 C1 2 1 2 0.44140625 3.9453125 C0.15136719 4.66460938 -0.13867188 5.38390625 -0.4375 6.125 C-0.72496094 6.84945312 -1.01242187 7.57390625 -1.30859375 8.3203125 C-1.53675781 8.87460937 -1.76492188 9.42890625 -2 10 C-2.66 9.67 -3.32 9.34 -4 9 C-2.94124926 5.59687262 -1.99097846 2.98646769 0 0 Z " fill="#1EA5AA" transform="translate(957,736)"/>
<path d="M0 0 C0 0.66 0 1.32 0 2 C-1.98 2.99 -1.98 2.99 -4 4 C-4 3.34 -4 2.68 -4 2 C-4.66 2 -5.32 2 -6 2 C-6 1.34 -6 0.68 -6 0 C-3.50907189 -1.24546405 -2.58919267 -0.7767578 0 0 Z " fill="#37A9A3" transform="translate(829,617)"/>
<path d="M0 0 C0.33 0 0.66 0 1 0 C1.98248524 4.0527516 2.08159574 7.83861737 2 12 C1.67 12 1.34 12 1 12 C1 10.35 1 8.7 1 7 C0.34 7 -0.32 7 -1 7 C-0.67 4.69 -0.34 2.38 0 0 Z " fill="#129FA5" transform="translate(14,573)"/>
<path d="M0 0 C0.33 0.66 0.66 1.32 1 2 C-0.65 3.98 -2.3 5.96 -4 8 C-4.66 7.34 -5.32 6.68 -6 6 C-4.02 4.02 -2.04 2.04 0 0 Z " fill="#081E28" transform="translate(829,524)"/>
<path d="M0 0 C2.31 0.33 4.62 0.66 7 1 C6.67 1.66 6.34 2.32 6 3 C4.02 3 2.04 3 0 3 C0 2.01 0 1.02 0 0 Z " fill="#16373E" transform="translate(550,439)"/>
<path d="M0 0 C0.66 0 1.32 0 2 0 C2.93423645 3.01031744 3.04449911 3.86650268 2 7 C1.01 7 0.02 7 -1 7 C-0.67 4.69 -0.34 2.38 0 0 Z " fill="#4BB8BC" transform="translate(16,412)"/>
<path d="M0 0 C0.66 0.33 1.32 0.66 2 1 C-0.97 4.96 -0.97 4.96 -4 9 C-4.33 8.01 -4.66 7.02 -5 6 C-3.59554165 3.7363436 -1.8032087 1.9791315 0 0 Z " fill="#0A1D26" transform="translate(619,367)"/>
<path d="M0 0 C0.66 0.66 1.32 1.32 2 2 C1.625 5.625 1.625 5.625 1 9 C0.34 8.34 -0.32 7.68 -1 7 C-0.625 3.375 -0.625 3.375 0 0 Z " fill="#74CCC7" transform="translate(402,668)"/>
<path d="M0 0 C0.99 0.33 1.98 0.66 3 1 C0.6875 3.0625 0.6875 3.0625 -2 5 C-2.99 4.67 -3.98 4.34 -5 4 C-2.6875 1.9375 -2.6875 1.9375 0 0 Z " fill="#3EB5AD" transform="translate(838,609)"/>
<path d="M0 0 C0.66 0 1.32 0 2 0 C2 2.31 2 4.62 2 7 C1.01 7 0.02 7 -1 7 C-0.67 4.69 -0.34 2.38 0 0 Z " fill="#53BCBF" transform="translate(1012,452)"/>
<path d="M0 0 C0.33 0.99 0.66 1.98 1 3 C-0.65 4.65 -2.3 6.3 -4 8 C-4.66 7.67 -5.32 7.34 -6 7 C-4.02 4.69 -2.04 2.38 0 0 Z " fill="#8BEAE3" transform="translate(306,206)"/>
<path d="M0 0 C0 0.99 0 1.98 0 3 C-2.5 5.1875 -2.5 5.1875 -5 7 C-5 4 -5 4 -3.625 2.375 C-2 1 -2 1 0 0 Z " fill="#1AA2A8" transform="translate(148,158)"/>
</svg>
